<svg id="Layer_1" data-name="Layer 1" xmlns="http://www.w3.org/2000/svg" viewBox="0 0 314.98 314.98">
  <defs>
    <style>
      .cls-1 {
        fill: #fff;
      }
    </style>
  </defs>
  <title>search</title>
  <path class="cls-1" d="M129.11,17.21a116.6,116.6,0,1,0,69.86,210c12,16.54,25.28,32.71,38.17,47.64,8.44,9.78,28.88,32.23,43.12,30.41,0,0,21.23-1,22.54-22.54.87-14.32-20.63-34.68-30.41-43.12-15.06-13-31.37-26.42-48.06-38.47A116.59,116.59,0,0,0,129.11,17.21Zm59.38,176a84,84,0,1,1,24.6-59.38A83.42,83.42,0,0,1,188.49,193.19Z"/>
</svg>
