<svg xmlns="http://www.w3.org/2000/svg" viewBox="0 0 178.94 22.37"><defs><style>.cls-1{fill:#4267b1;}.cls-2{fill:#4080ff;}</style></defs><title>BlueprintAsset 1</title><g id="Layer_2" data-name="Layer 2"><g id="Layer_1-2" data-name="Layer 1"><path class="cls-1" d="M7,2.72c-1.06,0-1.36.47-1.36,1.5V5.93H8.46L8.18,8.69H5.65v8.39H2.27V8.69H0V5.93H2.27V4.27C2.27,1.48,3.4,0,6.54,0a16,16,0,0,1,2,.12v2.6Z"/><path class="cls-1" d="M8.69,11.16c0-3.12,1.48-5.47,4.57-5.47a3.31,3.31,0,0,1,3.21,1.95V5.93h3.24V17.08H16.47V15.4a3.27,3.27,0,0,1-3.21,1.92c-3.09,0-4.57-2.35-4.57-5.46Zm3.38.74c0,1.67.61,2.77,2.18,2.77,1.38,0,2.08-1,2.08-2.6V10.94c0-1.59-.7-2.6-2.08-2.6-1.57,0-2.18,1.1-2.18,2.77Z"/><path class="cls-1" d="M26.74,5.69A6.24,6.24,0,0,1,30,6.44l-.75,2.39A5.42,5.42,0,0,0,27,8.32c-1.83,0-2.62,1-2.62,2.86v.65c0,1.81.79,2.86,2.62,2.86a5.27,5.27,0,0,0,2.25-.51L30,16.57a6.14,6.14,0,0,1-3.23.75c-4,0-5.77-2.13-5.77-5.56v-.51C21,7.83,22.78,5.69,26.74,5.69Z"/><path class="cls-1" d="M30.42,11.93v-1c0-3.16,1.8-5.25,5.48-5.25,3.47,0,5,2.11,5,5.21v1.78h-7.1c.07,1.52.75,2.2,2.63,2.2A9.59,9.59,0,0,0,40,14.2l.61,2.32a10.88,10.88,0,0,1-4.34.82C32,17.34,30.42,15.21,30.42,11.93Zm3.37-1.45h4.08v-.29C37.87,9,37.38,8,35.9,8S33.79,9,33.79,10.48Z"/><path class="cls-1" d="M53.4,11.86c0,3.11-1.49,5.46-4.59,5.46a3.47,3.47,0,0,1-3.33-1.92v1.68H42.3V.33L45.67,0V7.48a3.36,3.36,0,0,1,3.14-1.79c3.1,0,4.59,2.35,4.59,5.47ZM50,11.08c0-1.57-.61-2.74-2.23-2.74-1.38,0-2.13,1-2.13,2.58v1.17c0,1.6.75,2.58,2.13,2.58,1.62,0,2.23-1.17,2.23-2.74Z"/><path class="cls-1" d="M54.53,11.79v-.56c0-3.22,1.83-5.54,5.55-5.54S65.64,8,65.64,11.23v.56c0,3.21-1.83,5.53-5.56,5.53S54.53,15,54.53,11.79Zm7.73-.8c0-1.48-.61-2.65-2.18-2.65S57.9,9.51,57.9,11v1c0,1.48.61,2.65,2.18,2.65S62.26,13.5,62.26,12Z"/><path class="cls-1" d="M66.76,11.79v-.56c0-3.22,1.83-5.54,5.56-5.54S77.87,8,77.87,11.23v.56c0,3.21-1.83,5.53-5.55,5.53S66.76,15,66.76,11.79Zm7.73-.8c0-1.48-.6-2.65-2.17-2.65S70.14,9.51,70.14,11v1c0,1.48.61,2.65,2.18,2.65S74.49,13.5,74.49,12Z"/><path class="cls-1" d="M82.51,11.25l3.33-5.32h3.58l-3.49,5.51,3.63,5.64H86l-3.47-5.46v5.46H79.13V.33L82.51,0Z"/><path class="cls-2" d="M100.93,17.07a9.45,9.45,0,0,1-2.41-.36l-2,.36V.34l2-.31V6.61a4.47,4.47,0,0,1,3.11-1.39c3.14,0,5,2.53,5,5.88A5.65,5.65,0,0,1,100.93,17.07Zm.29-10a4.06,4.06,0,0,0-2.7,1.07v6.33a3.83,3.83,0,0,0,2.48.81c2.26,0,3.52-1.85,3.52-4.13C104.52,8.69,103.28,7.07,101.22,7.07Z"/><path class="cls-2" d="M108.51,16.71V.34l2-.31V16.71Z"/><path class="cls-2" d="M115.11,5.59v7c0,1.92.73,2.57,2.19,2.57a4.49,4.49,0,0,0,3-1.21V5.59h2V16.76l-2,.31V15.45a5.28,5.28,0,0,1-3.74,1.62c-2.13,0-3.47-1.43-3.47-3.83V5.59Z"/><path class="cls-2" d="M126.33,11.49A3.61,3.61,0,0,0,130,15.23a6.16,6.16,0,0,0,3.33-.93l.36,1.85a7.25,7.25,0,0,1-3.74.92,5.46,5.46,0,0,1-5.63-5.8c0-3.6,2.38-6,5.49-6,2.69,0,4.25,1.7,4.25,4.35a6.41,6.41,0,0,1-.25,1.77l-7.48.05Zm5.81-1.61V9.71c0-1.65-.78-2.74-2.53-2.74a3.23,3.23,0,0,0-3.18,3Z"/><path class="cls-2" d="M141.07,5.22c3.14,0,5,2.53,5,5.88a5.65,5.65,0,0,1-5.66,6,10.09,10.09,0,0,1-2.4-.29v5.59h-2V5.54l2-.32V6.61A4.43,4.43,0,0,1,141.07,5.22ZM138,14.47a3.78,3.78,0,0,0,2.47.81c2.26,0,3.52-1.85,3.52-4.13,0-2.46-1.23-4.08-3.3-4.08A4,4,0,0,0,138,8.14Z"/><path class="cls-2" d="M150,16.71h-2V5.54l2-.32v2a3.52,3.52,0,0,1,3.11-2,4.05,4.05,0,0,1,2.09.56l-.51,1.87a3.46,3.46,0,0,0-1.77-.51c-1.07,0-2.09.78-2.92,2.31Z"/><path class="cls-2" d="M157.54,3.13a1.29,1.29,0,0,1-1.31-1.43,1.32,1.32,0,1,1,2.62,0A1.29,1.29,0,0,1,157.54,3.13Zm-1,13.58V5.54l2-.32V16.71Z"/><path class="cls-2" d="M168.47,16.71v-7c0-1.91-.73-2.57-2.31-2.57a4.5,4.5,0,0,0-2.91,1.21v8.36h-2V5.54l2-.32V6.9a5.3,5.3,0,0,1,3.62-1.68c2.26,0,3.59,1.43,3.59,3.84v7.65Z"/><path class="cls-2" d="M176.44,17.07c-2.16,0-3.31-1-3.23-3.47l.17-6.22-1.85-.12L171.6,6l1.85-.56L173.5,3h1.92l-.08,2.55h3.48l-.08,1.79h-3.47l-.17,6.29c0,1.05.46,1.58,1.46,1.58a5.86,5.86,0,0,0,2-.41s.37,1.75.37,1.75A7.19,7.19,0,0,1,176.44,17.07Z"/></g></g></svg>