<?xml version="1.0" encoding="utf-8"?>
<!-- Generator: Adobe Illustrator 24.0.3, SVG Export Plug-In . SVG Version: 6.00 Build 0)  -->
<svg version="1.1" id="Layer_1" xmlns="http://www.w3.org/2000/svg" xmlns:xlink="http://www.w3.org/1999/xlink" x="0px" y="0px"
	 viewBox="0 0 25.1 25.2" style="enable-background:new 0 0 25.1 25.2;" xml:space="preserve">
<style type="text/css">
	.st0{fill:#FFFFFF;}
</style>
<g>
	<path class="st0" d="M12.5,2.5c3.3,0,3.7,0,5,0.1c0.8,0,1.6,0.1,2.3,0.4c0.5,0.2,1,0.5,1.4,0.9c0.4,0.4,0.7,0.9,0.9,1.4
		c0.3,0.7,0.4,1.5,0.4,2.3c0.1,1.3,0.1,1.7,0.1,5s0,3.7-0.1,5c0,0.8-0.1,1.6-0.4,2.3c-0.4,1.1-1.3,1.9-2.3,2.3
		c-0.7,0.3-1.5,0.4-2.3,0.4c-1.3,0.1-1.7,0.1-5,0.1s-3.7,0-4.9-0.1c-0.8,0-1.6-0.2-2.3-0.4c-0.5-0.2-1-0.5-1.4-1
		c-0.4-0.4-0.7-0.9-0.9-1.4c-0.3-0.7-0.4-1.5-0.4-2.3c-0.1-1.3-0.1-1.7-0.1-5s0-3.7,0.1-5C2.6,6.8,2.8,6,3,5.3
		c0.2-0.5,0.5-1,0.9-1.4S4.8,3.2,5.3,3C6,2.7,6.8,2.6,7.6,2.6C8.9,2.5,9.2,2.5,12.5,2.5 M12.5,0.3c-3.3,0-3.7,0-5,0.1
		c-1,0-2,0.2-3,0.6C3.7,1.2,2.9,1.7,2.3,2.3C1.6,3,1.2,3.7,0.8,4.5c-0.4,1-0.6,2-0.6,3c0,1.3,0,1.8,0,5.1s0,3.7,0.1,5
		c0,1,0.2,2,0.6,3c0.3,0.8,0.8,1.6,1.4,2.2s1.4,1.1,2.2,1.4c1,0.4,2,0.6,3,0.6c1.3,0.1,1.7,0.1,5,0.1s3.7,0,5.1-0.1c1,0,2-0.2,3-0.6
		c0.8-0.3,1.6-0.8,2.2-1.4c0.6-0.6,1.1-1.4,1.4-2.2c0.4-1,0.6-2,0.6-3c0.1-1.3,0.1-1.7,0.1-5s0-3.8-0.1-5.1c0-1-0.2-2-0.6-3
		c-0.3-0.8-0.8-1.6-1.4-2.2c-0.6-0.6-1.4-1.1-2.2-1.4c-1-0.4-2-0.6-3-0.6C16.2,0.3,15.8,0.3,12.5,0.3L12.5,0.3z"/>
	<path class="st0" d="M12.5,6.2c-3.5,0-6.3,2.9-6.3,6.3s2.8,6.3,6.3,6.3s6.3-2.8,6.3-6.3S15.9,6.2,12.5,6.2z M12.5,16.6
		c-2.3,0-4.1-1.8-4.1-4.1s1.8-4.1,4.1-4.1s4.1,1.8,4.1,4.1l0,0C16.6,14.8,14.7,16.6,12.5,16.6L12.5,16.6L12.5,16.6z"/>
	<circle class="st0" cx="19" cy="6" r="1.5"/>
</g>
</svg>
