<?xml version="1.0" encoding="utf-8"?>
<!-- Generator: Adobe Illustrator 23.0.3, SVG Export Plug-In . SVG Version: 6.00 Build 0)  -->
<svg version="1.1" id="Layer_1" xmlns="http://www.w3.org/2000/svg" xmlns:xlink="http://www.w3.org/1999/xlink" x="0px" y="0px"
	 viewBox="0 0 179.2 17.3" style="enable-background:new 0 0 179.2 17.3;" xml:space="preserve">
<style type="text/css">
	.st0{clip-path:url(#SVGID_2_);}
	.st1{opacity:0.6;clip-path:url(#SVGID_4_);}
	.st2{fill:#677B8C;}
	.st3{clip-path:url(#SVGID_6_);fill:#344854;}
	.st4{clip-path:url(#SVGID_8_);fill:#344854;}
</style>
<title>BlueprintAsset 1</title>
<g>
	<g id="Layer_2_1_">
	</g>
	<g id="Layer_3">
	</g>
	<g>
		<g>
			<defs>
				<rect id="SVGID_1_" x="-14.4" y="-13.7" width="208.1" height="44.1"/>
			</defs>
			<clipPath id="SVGID_2_">
				<use xlink:href="#SVGID_1_"  style="overflow:visible;"/>
			</clipPath>
			<g class="st0">
				<g>
					<defs>
						<rect id="SVGID_3_" x="-14.4" y="-13.7" width="208.1" height="44.1"/>
					</defs>
					<clipPath id="SVGID_4_">
						<use xlink:href="#SVGID_3_"  style="overflow:visible;"/>
					</clipPath>
					<g class="st1">
						<g>
							<path class="st2" d="M11,0.7v1.8c0,0.1-0.1,0.2-0.2,0.2H2.6v3.6h6.8c0.1,0,0.2,0.1,0.2,0.2v1.8c0,0.1-0.1,0.2-0.2,0.2H2.6
								v5.4c0,0.1-0.1,0.2-0.2,0.2h-2c-0.1,0-0.2-0.1-0.2-0.2V0.7c0-0.1,0.1-0.2,0.2-0.2h10.5C10.9,0.4,11,0.5,11,0.7"/>
							<path class="st2" d="M27.8,13.9h-2.3c-0.1,0-0.2-0.1-0.3-0.2c-0.3-1.1-0.7-2.3-1.1-3.5h-7c-0.4,1.2-0.8,2.3-1.1,3.5
								c0,0.1-0.1,0.2-0.3,0.2h-2.2c-0.2,0-0.2-0.1-0.2-0.2c1.4-4.3,3.4-9,5.4-13c0.1-0.2,0.2-0.3,0.4-0.3h2.9
								c0.2,0,0.3,0.1,0.4,0.3c2,4,4,8.7,5.3,13C28,13.8,27.9,13.9,27.8,13.9 M23.4,8.2c-0.8-1.9-1.6-3.9-2.5-5.7h-0.5
								c-0.9,1.8-1.7,3.7-2.5,5.7C18,8.2,23.4,8.2,23.4,8.2z"/>
							<path class="st2" d="M31.5,7.3c0-4.2,3-7.1,7.2-7.1H39c2.7,0,4.7,1.3,5.8,3c0.1,0.1,0.1,0.2-0.1,0.3l-1.8,0.8
								c-0.1,0.1-0.3,0.1-0.3-0.1c-0.8-1.2-1.9-1.9-3.6-1.9h-0.3c-2.7,0-4.5,2-4.5,4.8s1.8,4.8,4.5,4.8H39c1.7,0,2.8-0.6,3.5-1.4
								c0.1-0.1,0.2-0.1,0.3-0.1l1.9,0.8c0.1,0,0.1,0.1,0.1,0.1c0,0.1,0,0.1-0.1,0.1c-1.1,1.6-3.2,2.5-5.8,2.5h-0.3
								C34.4,14.1,31.5,11.4,31.5,7.3"/>
							<path class="st2" d="M61.4,12v1.8c0,0.1-0.1,0.2-0.2,0.2H50.3c-0.1,0-0.2-0.1-0.2-0.2V0.7c0-0.1,0.1-0.2,0.2-0.2H61
								c0.1,0,0.2,0.1,0.2,0.2v1.8c0,0.1-0.1,0.2-0.2,0.2h-8.5v3.5h6.9c0.1,0,0.2,0.1,0.2,0.2v1.8c0,0.1-0.1,0.2-0.2,0.2h-6.9v3.5
								h8.6C61.3,11.7,61.4,11.8,61.4,12"/>
							<path class="st2" d="M80.2,10.2c0,2.3-2,3.7-5.4,3.7h-7.2c-0.1,0-0.2-0.1-0.2-0.2V0.7c0-0.1,0.1-0.2,0.2-0.2h6.5
								c3.4,0,5.2,1.2,5.2,3.5c0,1.5-0.8,2.5-2.4,2.9C79.2,7.3,80.2,8.6,80.2,10.2 M74.1,2.6h-4.2v3.6h4.2c1.9,0,2.8-0.6,2.8-1.8
								S76,2.6,74.1,2.6 M77.6,10c0-1.3-0.9-1.8-2.8-1.8h-4.9v3.6h4.9C76.8,11.8,77.6,11.3,77.6,10"/>
							<path class="st2" d="M84.5,7.2c0-4.1,2.9-7,7.5-7h0.3c4.6,0,7.5,2.9,7.5,7c0,4.1-2.9,7-7.5,7H92
								C87.4,14.1,84.5,11.3,84.5,7.2 M92.3,12c3,0,4.9-1.9,4.9-4.8s-1.9-4.8-4.9-4.8H92c-3,0-4.9,1.9-4.9,4.8S89,12,92,12H92.3z"/>
							<path class="st2" d="M104,7.2c0-4.1,2.9-7,7.5-7h0.3c4.6,0,7.5,2.9,7.5,7c0,4.1-2.9,7-7.5,7h-0.3
								C106.9,14.1,104,11.3,104,7.2 M111.8,12c3,0,4.9-1.9,4.9-4.8s-1.9-4.8-4.9-4.8h-0.3c-3,0-4.9,1.9-4.9,4.8s1.9,4.8,4.9,4.8
								H111.8z"/>
							<path class="st2" d="M137.2,13.9h-2.7c-0.2,0-0.3,0-0.3-0.2c-1.9-2-4.1-4.1-6-5.6H127v5.6c0,0.1-0.1,0.2-0.2,0.2h-2.1
								c-0.1,0-0.2-0.1-0.2-0.2V0.7c0-0.1,0.1-0.2,0.2-0.2h2.1c0.1,0,0.2,0.1,0.2,0.2V6h1.2c2-1.7,3.9-3.5,5.4-5.4
								c0.1-0.1,0.2-0.1,0.3-0.1h2.5c0.1,0,0.2,0.1,0.2,0.1c0,0,0,0.1-0.1,0.1c-2.2,2.5-4.4,4.6-6.5,6.2c2.6,2,5,4.3,7.3,6.7
								C137.5,13.8,137.4,13.9,137.2,13.9"/>
						</g>
					</g>
				</g>
				<g>
					<defs>
						<rect id="SVGID_5_" x="-14.4" y="-13.7" width="208.1" height="44.1"/>
					</defs>
					<clipPath id="SVGID_6_">
						<use xlink:href="#SVGID_5_"  style="overflow:visible;"/>
					</clipPath>
					<path class="st3" d="M158.8,13.9h-8.4c-0.1,0-0.2-0.1-0.2-0.2V12c0-0.1,0.1-0.2,0.2-0.2h2.9V2.5h-2.9c-0.1,0-0.2-0.1-0.2-0.2
						V0.7c0-0.1,0.1-0.2,0.2-0.2h8.4c0.1,0,0.2,0.1,0.2,0.2v1.7c0,0.1-0.1,0.2-0.2,0.2h-2.9v9.3h2.9c0.1,0,0.2,0.1,0.2,0.2v1.7
						C158.9,13.9,158.9,13.9,158.8,13.9"/>
				</g>
				<g>
					<defs>
						<rect id="SVGID_7_" x="-14.4" y="-13.7" width="208.1" height="44.1"/>
					</defs>
					<clipPath id="SVGID_8_">
						<use xlink:href="#SVGID_7_"  style="overflow:visible;"/>
					</clipPath>
					<path class="st4" d="M171.6,14.1h-0.3c-1.5,0-2.8-0.3-4-0.9c-1.1-0.6-2-1.4-2.6-2.5c-0.6-1.1-0.9-2.3-0.9-3.6
						c0-1.3,0.3-2.5,0.9-3.6c0.6-1.1,1.5-1.9,2.6-2.5c1.1-0.6,2.4-0.9,4-0.9h0.3c1.5,0,2.8,0.3,4,0.9c1.1,0.6,2,1.4,2.6,2.5
						c0.6,1.1,0.9,2.3,0.9,3.6c0,1.4-0.3,2.6-1,3.7c-0.6,1.1-1.6,1.9-2.7,2.5c0.7,0.9,1.5,2,2.2,3.4c0.1,0.1,0,0.2-0.2,0.2h-2.4
						c-0.1,0-0.2-0.1-0.3-0.1c-0.3-0.6-0.6-1.1-0.9-1.5c-0.3-0.5-0.6-0.9-0.9-1.3C172.7,14.1,172.2,14.1,171.6,14.1 M171.3,12h0.3
						c1,0,1.9-0.2,2.6-0.6c0.7-0.4,1.3-1,1.7-1.7c0.4-0.7,0.6-1.6,0.6-2.5c0-1-0.2-1.8-0.6-2.5C175.5,4,175,3.4,174.2,3
						c-0.7-0.4-1.6-0.6-2.6-0.6h-0.3c-1,0-1.8,0.2-2.6,0.6c-0.7,0.4-1.3,1-1.7,1.7c-0.4,0.7-0.6,1.6-0.6,2.5c0,1,0.2,1.8,0.6,2.5
						c0.4,0.7,0.9,1.3,1.7,1.7C169.5,11.8,170.3,12,171.3,12"/>
				</g>
			</g>
		</g>
	</g>
</g>
</svg>
