<?xml version="1.0" encoding="utf-8"?>
<!-- Generator: Adobe Illustrator 22.1.0, SVG Export Plug-In . SVG Version: 6.00 Build 0)  -->
<svg version="1.1" id="Layer_1" xmlns="http://www.w3.org/2000/svg" xmlns:xlink="http://www.w3.org/1999/xlink" x="0px" y="0px"
	 viewBox="0 0 33 33" style="enable-background:new 0 0 33 33;" xml:space="preserve">
<style type="text/css">
	.st0{fill:#FFFFFF;}
</style>
<title>Fill 4</title>
<desc>Created with Sketch.</desc>
<g id="Page-1">
	<g id="Front-Door-Homepage--Copy-4" transform="translate(-566.000000, -865.000000)">
		<path id="Fill-4" class="st0" d="M595.2,865h-25.4c-2.1,0-3.8,1.7-3.8,3.8v25.4c0,2.1,1.7,3.8,3.8,3.8h25.4c2.1,0,3.8-1.7,3.8-3.8
			v-25.4C599,866.7,597.3,865,595.2,865z M593.1,889.4c0.1,0.1,0.2,0.2,0.2,0.4v2.8c0,0.3-0.2,0.5-0.5,0.5h-2.8
			c-0.1,0-0.3-0.1-0.4-0.2l-2.1-2.1h-9.9l-2.1,2.1c-0.1,0.1-0.2,0.2-0.4,0.2h-2.8c-0.3,0-0.5-0.2-0.5-0.5v-2.8
			c0-0.1,0.1-0.3,0.2-0.4l1.9-1.9c-1.6-1.9-2.6-4.3-2.6-6.9c0-5.9,5-10.7,11.2-10.7c6.2,0,11.2,4.8,11.2,10.7c0,2.6-1,5-2.6,6.9
			L593.1,889.4z M589.2,880.8c0,1.7-0.6,3.2-1.9,4.2c-1.3,1.1-2.8,1.7-4.8,1.7c-2,0-3.5-0.6-4.8-1.7c-1.3-1.1-1.9-2.5-1.9-4.2
			c0-3.5,2.8-6,6.7-6C586.4,874.8,589.2,877.3,589.2,880.8z"/>
	</g>
</g>
</svg>
