<?xml version="1.0" encoding="utf-8"?>
<!-- Generator: Adobe Illustrator 22.1.0, SVG Export Plug-In . SVG Version: 6.00 Build 0)  -->
<svg version="1.1" id="Layer_1" xmlns="http://www.w3.org/2000/svg" xmlns:xlink="http://www.w3.org/1999/xlink" x="0px" y="0px"
	 viewBox="0 0 32 33" style="enable-background:new 0 0 32 33;" xml:space="preserve">
<style type="text/css">
	.st0{fill:#FFFFFF;}
</style>
<title>Fill 14</title>
<desc>Created with Sketch.</desc>
<g id="Page-1">
	<g id="Front-Door-Homepage--Copy-4" transform="translate(-990.000000, -865.000000)">
		<path id="Fill-14" class="st0" d="M1010.7,894.1c-1.2,0.3-2.4,0.5-3.7,0.5c-3.6,0-7-1.4-9.6-3.8c-2.6-2.5-4-5.8-4-9.3
			c0-3.5,1.4-6.8,4-9.3c2.6-2.5,6-3.8,9.6-3.8c6.3,0,11.5,5,11.5,11.1c0,2.3-0.7,4.4-1.9,6.1l-3.4-8.2c-0.4-0.9-1.5-1.5-2.5-1.5
			c-1,0-2.1,0.6-2.5,1.5l-3.2,7.6l-3.8-9h-3.8l5,12c0.4,0.9,1.5,1.5,2.5,1.5c1,0,2.1-0.6,2.5-1.5l3.2-7.6l3.2,7.6
			c0.3,0.8,1.3,1.5,2.5,1.5c1.2,0,2.1-0.8,2.6-1.3c1.9-2.4,3.1-5.5,3.1-8.8c0-8-6.7-14.5-15-14.5c-2.3,0-4.5,0.4-6.6,1.3
			c-2,0.8-3.9,2-5.4,3.5c-1.6,1.5-2.8,3.3-3.6,5.2c-0.9,2-1.3,4.2-1.3,6.4c0,2.2,0.5,4.4,1.3,6.4c0.9,2,2.1,3.7,3.6,5.2
			c1.6,1.5,3.4,2.7,5.4,3.5c2.1,0.9,4.3,1.3,6.6,1.3c1.2,0,2.4-0.1,3.7-0.4V894.1z"/>
	</g>
</g>
</svg>
