<?xml version="1.0" encoding="utf-8"?>
<!-- Generator: Adobe Illustrator 24.0.3, SVG Export Plug-In . SVG Version: 6.00 Build 0)  -->
<svg version="1.1" id="Layer_1" xmlns="http://www.w3.org/2000/svg" xmlns:xlink="http://www.w3.org/1999/xlink" x="0px" y="0px"
	 viewBox="0 0 84.8 83.4" style="enable-background:new 0 0 84.8 83.4;" xml:space="preserve">
<style type="text/css">
	.st0{fill:#FFFFFF;}
</style>
<path class="st0" d="M42.5,1C19.5,1,1.7,17.8,1.7,40.5C1.6,51.6,6.2,62.3,14.5,69.7c0.7,0.6,1.1,1.4,1.1,2.3l0.2,7.2
	c0,1.8,1.5,3.2,3.3,3.2c0.4,0,0.8-0.1,1.2-0.3l8.1-3.6c0.7-0.3,1.5-0.4,2.2-0.2c3.8,1,7.8,1.6,11.8,1.6c23,0,40.8-16.8,40.8-39.5
	S65.5,1,42.5,1z M67,31.4l-12,19c-1.8,2.9-5.6,3.7-8.4,1.9c-0.1-0.1-0.3-0.2-0.4-0.3l-9.5-7.1c-0.9-0.7-2.1-0.7-3,0l-12.9,9.8
	c-0.8,0.7-2.1,0.5-2.7-0.3c-0.5-0.6-0.6-1.6-0.1-2.2l12-19c1.8-2.9,5.6-3.7,8.4-1.9c0.1,0.1,0.3,0.2,0.4,0.3l9.5,7.1
	c0.9,0.7,2.1,0.7,3,0l12.9-9.8c0.8-0.7,2-0.6,2.7,0.2C67.4,29.7,67.5,30.7,67,31.4z"/>
</svg>
